<svg xmlns="http://www.w3.org/2000/svg" version="1.1" xmlns:xlink="http://www.w3.org/1999/xlink" xmlns:svgjs="http://svgjs.dev/svgjs" width="1440" height="560" preserveAspectRatio="none" viewBox="0 0 1440 560"><g mask="url(&quot;#SvgjsMask1015&quot;)" fill="none"><rect width="1440" height="560" x="0" y="0" fill="url(&quot;#SvgjsLinearGradient1016&quot;)"></rect><path d="M1440 0L951.73 0L1440 227.52z" fill="rgba(255, 255, 255, .1)"></path><path d="M951.73 0L1440 227.52L1440 330.98L945.78 0z" fill="rgba(255, 255, 255, .075)"></path><path d="M945.78 0L1440 330.98L1440 415.62L355.77 0z" fill="rgba(255, 255, 255, .05)"></path><path d="M355.77 0L1440 415.62L1440 484.49L290.97999999999996 0z" fill="rgba(255, 255, 255, .025)"></path><path d="M0 560L439.14 560L0 445.09000000000003z" fill="rgba(0, 0, 0, .1)"></path><path d="M0 445.09000000000003L439.14 560L714.9300000000001 560L0 242.52000000000004z" fill="rgba(0, 0, 0, .075)"></path><path d="M0 242.51999999999998L714.9300000000001 560L875.69 560L0 211.82999999999998z" fill="rgba(0, 0, 0, .05)"></path><path d="M0 211.82999999999998L875.69 560L1252.33 560L0 176.04z" fill="rgba(0, 0, 0, .025)"></path></g><defs><mask id="SvgjsMask1015"><rect width="1440" height="560" fill="#ffffff"></rect></mask><linearGradient x1="15.28%" y1="-39.29%" x2="84.72%" y2="139.29%" gradientUnits="userSpaceOnUse" id="SvgjsLinearGradient1016"><stop stop-color="#0e2a47" offset="0"></stop><stop stop-color="rgba(37, 37, 37, 1)" offset="1"></stop></linearGradient></defs></svg>