<svg xmlns="http://www.w3.org/2000/svg" version="1.1" xmlns:xlink="http://www.w3.org/1999/xlink" xmlns:svgjs="http://svgjs.dev/svgjs" width="1440" height="400" preserveAspectRatio="none" viewBox="0 0 1440 400"><g mask="url(&quot;#SvgjsMask2299&quot;)" fill="none"><rect width="1440" height="400" x="0" y="0" fill="rgba(28, 28, 28, 0.76)"></rect><path d="M14 400L414 0L679.5 0L279.5 400z" fill="url(&quot;#SvgjsLinearGradient2300&quot;)"></path><path d="M281.6 400L681.6 0L849.6 0L449.6 400z" fill="url(&quot;#SvgjsLinearGradient2300&quot;)"></path><path d="M503.20000000000005 400L903.2 0L996.2 0L596.2 400z" fill="url(&quot;#SvgjsLinearGradient2300&quot;)"></path><path d="M730.8000000000001 400L1130.8000000000002 0L1282.3000000000002 0L882.3000000000001 400z" fill="url(&quot;#SvgjsLinearGradient2300&quot;)"></path><path d="M1420 400L1020 0L667.5 0L1067.5 400z" fill="url(&quot;#SvgjsLinearGradient2301&quot;)"></path><path d="M1190.4 400L790.4000000000001 0L476.9000000000001 0L876.9000000000001 400z" fill="url(&quot;#SvgjsLinearGradient2301&quot;)"></path><path d="M963.8 400L563.8 0L517.3 0L917.3 400z" fill="url(&quot;#SvgjsLinearGradient2301&quot;)"></path><path d="M726.1999999999999 400L326.19999999999993 0L-17.300000000000068 0L382.69999999999993 400z" fill="url(&quot;#SvgjsLinearGradient2301&quot;)"></path><path d="M1051.1170284562054 400L1440 11.117028456205276L1440 400z" fill="url(&quot;#SvgjsLinearGradient2300&quot;)"></path><path d="M0 400L388.8829715437947 400L 0 11.117028456205276z" fill="url(&quot;#SvgjsLinearGradient2301&quot;)"></path></g><defs><mask id="SvgjsMask2299"><rect width="1440" height="400" fill="#ffffff"></rect></mask><linearGradient x1="0%" y1="100%" x2="100%" y2="0%" id="SvgjsLinearGradient2300"><stop stop-color="rgba(37, 37, 37, 1)" offset="0"></stop><stop stop-opacity="0" stop-color="rgba(37, 37, 37, 1)" offset="0.66"></stop></linearGradient><linearGradient x1="100%" y1="100%" x2="0%" y2="0%" id="SvgjsLinearGradient2301"><stop stop-color="rgba(37, 37, 37, 1)" offset="0"></stop><stop stop-opacity="0" stop-color="rgba(37, 37, 37, 1)" offset="0.66"></stop></linearGradient></defs></svg>